<svg width="512" height="512" viewBox="0 0 512 512" fill="none" xmlns="http://www.w3.org/2000/svg">
<path d="M482.203 316.168V132.446L120.277 67.0981V44.5119C120.277 19.9683 100.31 1.52588e-05 75.7663 1.52588e-05H29.7956V30.1605H75.7653C83.6784 30.1605 90.1166 36.5988 90.1166 44.5119V322.999C90.1166 355.149 116.272 381.304 148.422 381.304H160.491V415.674C154.329 412.974 147.531 411.465 140.384 411.465C112.667 411.465 90.1166 434.015 90.1166 461.732C90.1166 489.45 112.667 512 140.384 512C166.406 512 187.87 492.125 190.399 466.759H190.652V381.304H452.043V415.674C445.881 412.974 439.083 411.465 431.936 411.465C404.218 411.465 381.668 434.015 381.668 461.732C381.668 489.45 404.218 512 431.936 512C457.957 512 479.422 492.125 481.951 466.759H482.203V351.144H148.422C132.902 351.144 120.277 338.519 120.277 322.999V311.14L482.203 316.168ZM140.384 481.839C129.297 481.839 120.277 472.819 120.277 461.732C120.277 450.645 129.297 441.625 140.384 441.625C151.471 441.625 160.491 450.645 160.491 461.732C160.491 472.819 151.471 481.839 140.384 481.839ZM431.936 481.839C420.849 481.839 411.829 472.819 411.829 461.732C411.829 450.645 420.849 441.625 431.936 441.625C443.023 441.625 452.043 450.645 452.043 461.732C452.043 472.819 443.023 481.839 431.936 481.839ZM271.08 283.072L210.759 282.234V114.083L271.08 124.974V283.072ZM301.24 130.42L356.535 140.404V284.259L301.24 283.491V130.42ZM180.598 281.815L120.277 280.977V97.7462L180.598 108.637V281.815ZM452.043 285.585L386.695 284.677V145.849L452.043 157.648V285.585Z" fill="white"/>
</svg>
